# xmcd CD database file
#
# Track frame offsets:
#	187
#	4717
#	23287
#	42325
#	61317
#	79230
#	100565
#	116637
#	132855
#	157485
#	181897
#	203387
#	222975
#	243107
#	268947
#	291427
#
# Disc length: 4137 seconds
#
# Revision: 0
# Processed by: cddbd v1.5PL3 Copyright (c) Steve Scherf et al.
# Submitted via: CDex 1.51
#
DISCID=d9102710
DTITLE=Dru Hill - Dru Hill
DYEAR=1996
DGENRE=R&B
TTITLE0=Anthem
TTITLE1=Nothing To Prove
TTITLE2=Tell Me
TTITLE3=Do U Believe ?
TTITLE4=Whatever U Want
TTITLE5=Satisfied
TTITLE6=April Shower
TTITLE7=All Alone
TTITLE8=Never Make A Promise
TTITLE9=So Special
TTITLE10=In My Bed
TTITLE11=Love's Train
TTITLE12=Share My World
TTITLE13=5 Step
TTITLE14=Tell Me feat.Big Dex
TTITLE15=This Christmas
EXTD=YEAR: 1996
EXTT0=
EXTT1=
EXTT2=
EXTT3=
EXTT4=
EXTT5=
EXTT6=
EXTT7=
EXTT8=
EXTT9=
EXTT10=
EXTT11=
EXTT12=
EXTT13=
EXTT14=
EXTT15=
PLAYORDER=
